<svg id="Layer_1" data-name="Layer 1" xmlns="http://www.w3.org/2000/svg" viewBox="0 0 807.2 810.91"><defs><style>.cls-1{fill:#c4cce3;}.cls-2{fill:#d1d3d4;}.cls-3{fill:#fff;}</style></defs><title>image_placeholder</title><rect class="cls-1" width="807.2" height="810.91"/><polygon class="cls-2" points="612.55 107.7 605.88 101.03 607.15 99.76 612.55 105.16 617.94 99.76 619.21 101.03 612.55 107.7"/><rect class="cls-3" x="225.48" y="253.04" width="356.23" height="304.83" rx="25.25"/><rect class="cls-1" x="272.84" y="247.14" width="254.32" height="305.73" rx="16.23" transform="translate(803.6 5.46) rotate(90)"/><path class="cls-3" d="M465.83,404.78a12.43,12.43,0,0,0-18.66,0L435,418.69a12.43,12.43,0,0,1-19-.37l-39.91-49a12.42,12.42,0,0,0-19.27,0L247.14,504v35.45H552.86V503.75Z" transform="translate(3.6 5.46)"/><circle class="cls-3" cx="486.99" cy="348.88" r="31.21"/></svg>