<svg id="Layer_1" data-name="Layer 1" xmlns="http://www.w3.org/2000/svg" viewBox="0 0 807.2 810.91"><defs><style>.cls-1{fill:#c4cce3;}.cls-2{fill:#d1d3d4;}.cls-3{fill:#fff;}</style></defs><title>image-placeholder</title><rect class="cls-1" width="807.2" height="810.91"/><polygon class="cls-2" points="612.55 107.7 605.88 101.03 607.15 99.76 612.55 105.16 617.94 99.76 619.21 101.03 612.55 107.7"/><rect class="cls-3" x="291.51" y="309.54" width="224.18" height="191.83" rx="15.89"/><rect class="cls-1" x="319.98" y="303.8" width="160.05" height="192.4" rx="10.22" transform="translate(803.6 5.46) rotate(90)"/><path class="cls-3" d="M441.43,403a7.82,7.82,0,0,0-11.74,0l-7.7,8.75a7.81,7.81,0,0,1-11.93-.23l-25.12-30.86a7.82,7.82,0,0,0-12.12,0l-69,84.8v22.31H496.2V465.29Z" transform="translate(3.6 5.46)"/><circle class="cls-3" cx="456.08" cy="369.86" r="19.64"/></svg>